<svg width="37" height="38" viewBox="0 0 37 38" fill="none" xmlns="http://www.w3.org/2000/svg">
<path d="M8.50176 25.6418C1.54441 21.6833 0.844676 15.0758 1.42446 12.2969C-0.734736 15.4637 0.0449925 20.5937 0.644776 22.7329C2.44409 28.6346 7.85203 31.8694 10.3311 32.7491C15.1053 34.5484 19.5875 32.999 21.2169 31.9994C24.6956 30.1101 26.4049 26.9913 27.4245 25.5818C28.3842 24.1723 31.1731 18.7744 31.8029 16.0754C31.539 16.0754 28.804 18.7444 27.4845 20.3638C26.255 21.8728 24.0459 24.0024 22.9563 24.8321C16.9586 29.0545 10.8209 27.1312 8.50176 25.6418Z" fill="url(#paint0_linear_593_144)"/>
<circle cx="18.548" cy="6.35758" r="6.35758" fill="url(#paint1_linear_593_144)"/>
<path d="M10.8711 13.5506C8.23207 11.4394 7.42239 8.25263 7.3924 6.95312C6.21685 10.8636 7.24246 14.5802 7.90221 15.9497C10.3253 22.6671 15.5093 24.3465 17.7984 24.3465C20.0296 24.5384 22.5266 23.2269 23.4963 22.5472C24.7678 21.7795 27.5047 19.0285 28.7143 17.749C31.1373 15.278 32.3229 14.7002 32.6128 14.7202C32.5168 16.4715 30.8934 21.0278 30.0937 23.087C28.7263 26.3257 26.4251 29.3546 25.4455 30.4642C23.1184 33.3191 20.2575 34.6526 19.1179 34.9624C14.9195 36.2819 10.7111 34.8125 9.13174 33.9128C10.2353 35.3763 12.8503 36.6218 14.0199 37.0616C19.8257 39.4367 25.4355 36.7318 27.5147 35.0824C30.5616 32.7553 32.8227 29.0747 33.5724 27.5253C35.0838 25.0302 36.0215 20.6879 36.3014 18.8286C36.8532 12.9988 34.9919 9.98197 33.9923 9.20227C32.5048 8.12268 30.9134 8.41257 30.3037 8.69246C28.8162 9.22026 26.4451 11.9112 25.4455 13.1907C24.198 14.7262 22.6866 15.6698 22.0868 15.9497C16.7608 17.9169 12.6404 14.9661 10.8711 13.5506Z" fill="url(#paint2_linear_593_144)"/>
<defs>
<linearGradient id="paint0_linear_593_144" x1="31.7879" y1="21.2635" x2="1.01857e-07" y2="21.7133" gradientUnits="userSpaceOnUse">
<stop stop-color="#45C089"/>
<stop offset="1" stop-color="#2C865E"/>
</linearGradient>
<linearGradient id="paint1_linear_593_144" x1="12.1754" y1="9.32644" x2="24.8906" y2="4.10843" gradientUnits="userSpaceOnUse">
<stop stop-color="#364954"/>
<stop offset="1" stop-color="#78A2BA"/>
</linearGradient>
<linearGradient id="paint2_linear_593_144" x1="10.4662" y1="21.2577" x2="36.4063" y2="19.7283" gradientUnits="userSpaceOnUse">
<stop stop-color="#364954"/>
<stop offset="1" stop-color="#78A2BA"/>
</linearGradient>
</defs>
</svg>
